C:\Users\u0088756\Documents\FWO\Software\ExoSim\PredSim_2D\Polynomials\Gait18_shorterHamstring\dummy_motion_mtp.mot
nRows=40
nColumns=13

name C:\Users\u0088756\Documents\FWO\Software\ExoSim\PredSim_2D\Polynomials\Gait18_shorterHamstring\dummy_motion_mtp.mot
datacolumns 13
datarows 40
range 12.5100000000 12.9000000000
endheader
time	pelvis_tilt	pelvis_tx	pelvis_ty	hip_flexion_r	knee_angle_r	ankle_angle_r	mtp_angle_r	hip_flexion_l	knee_angle_l	ankle_angle_l	mtp_angle_l	lumbar_extension
       12.5100000000	        0.0000000000	        0.0000000000	        0.0000000000	      -47.2786555192	      -30.4096568805	       17.8265693703	        0.0000000000	      -47.2786555192	      -30.4096568805	       17.8265693703	        0.0000000000	        0.0000000000	
       12.5200000000	        0.0000000000	        0.0000000000	        0.0000000000	      -24.8727812266	      -49.4534733716	       -2.1627501465	        0.0000000000	      -24.8727812266	      -49.4534733716	       -2.1627501465	        0.0000000000	        0.0000000000	
       12.5300000000	        0.0000000000	        0.0000000000	        0.0000000000	      -26.7996394080	      -88.7346546283	       21.7095771403	        0.0000000000	      -26.7996394080	      -88.7346546283	       21.7095771403	        0.0000000000	        0.0000000000	
       12.5400000000	        0.0000000000	        0.0000000000	        0.0000000000	       -5.1128424917	      -48.5194990344	       -6.2819223128	        0.0000000000	       -5.1128424917	      -48.5194990344	       -6.2819223128	        0.0000000000	        0.0000000000	
       12.5500000000	        0.0000000000	        0.0000000000	        0.0000000000	       22.1007557288	      -16.9315516283	       -0.0513570440	        0.0000000000	       22.1007557288	      -16.9315516283	       -0.0513570440	        0.0000000000	        0.0000000000	
       12.5600000000	        0.0000000000	        0.0000000000	        0.0000000000	      -34.9445801831	      -68.1958706912	      -21.8206048182	        0.0000000000	      -34.9445801831	      -68.1958706912	      -21.8206048182	        0.0000000000	        0.0000000000	
       12.5700000000	        0.0000000000	        0.0000000000	        0.0000000000	       -2.4548799528	      -32.3579589252	      -25.2854590041	        0.0000000000	       -2.4548799528	      -32.3579589252	      -25.2854590041	        0.0000000000	        0.0000000000	
       12.5800000000	        0.0000000000	        0.0000000000	        0.0000000000	      -39.3764523709	      -48.6871753201	      -16.7919000252	        0.0000000000	      -39.3764523709	      -48.6871753201	      -16.7919000252	        0.0000000000	        0.0000000000	
       12.5900000000	        0.0000000000	        0.0000000000	        0.0000000000	       26.8167358193	      -61.8550169902	       -2.0873116691	        0.0000000000	       26.8167358193	      -61.8550169902	       -2.0873116691	        0.0000000000	        0.0000000000	
       12.6000000000	        0.0000000000	        0.0000000000	        0.0000000000	       34.4796454449	      -19.3334058647	       -7.0007884298	        0.0000000000	       34.4796454449	      -19.3334058647	       -7.0007884298	        0.0000000000	        0.0000000000	
       12.6100000000	        0.0000000000	        0.0000000000	        0.0000000000	       -5.1381691846	      -52.8779002771	       -3.7844393202	        0.0000000000	       -5.1381691846	      -52.8779002771	       -3.7844393202	        0.0000000000	        0.0000000000	
       12.6200000000	        0.0000000000	        0.0000000000	        0.0000000000	      -35.6101509567	      -44.4685060987	       13.6654795386	        0.0000000000	      -35.6101509567	      -44.4685060987	       13.6654795386	        0.0000000000	        0.0000000000	
       12.6300000000	        0.0000000000	        0.0000000000	        0.0000000000	      -10.5243143055	      -73.2131270146	      -11.9889041439	        0.0000000000	      -10.5243143055	      -73.2131270146	      -11.9889041439	        0.0000000000	        0.0000000000	
       12.6400000000	        0.0000000000	        0.0000000000	        0.0000000000	       27.5654006855	      -76.6650354596	      -11.9679909336	        0.0000000000	       27.5654006855	      -76.6650354596	      -11.9679909336	        0.0000000000	        0.0000000000	
       12.6500000000	        0.0000000000	        0.0000000000	        0.0000000000	       40.3706447162	      -23.4400742931	      -29.4269509663	        0.0000000000	       40.3706447162	      -23.4400742931	      -29.4269509663	        0.0000000000	        0.0000000000	
       12.6600000000	        0.0000000000	        0.0000000000	        0.0000000000	        0.0464014151	      -62.1854994245	        0.9343832146	        0.0000000000	        0.0464014151	      -62.1854994245	        0.9343832146	        0.0000000000	        0.0000000000	
       12.6700000000	        0.0000000000	        0.0000000000	        0.0000000000	      -11.5287492735	      -65.9029382504	       14.5528731552	        0.0000000000	      -11.5287492735	      -65.9029382504	       14.5528731552	        0.0000000000	        0.0000000000	
       12.6800000000	        0.0000000000	        0.0000000000	        0.0000000000	       -7.2431069129	      -47.5147294457	      -28.8181264053	        0.0000000000	       -7.2431069129	      -47.5147294457	      -28.8181264053	        0.0000000000	        0.0000000000	
       12.6900000000	        0.0000000000	        0.0000000000	        0.0000000000	       33.1980356652	      -75.7541418800	      -27.1736978653	        0.0000000000	       33.1980356652	      -75.7541418800	      -27.1736978653	        0.0000000000	        0.0000000000	
       12.7000000000	        0.0000000000	        0.0000000000	        0.0000000000	      -25.8226912326	      -69.7409061686	       -8.7519115809	        0.0000000000	      -25.8226912326	      -69.7409061686	       -8.7519115809	        0.0000000000	        0.0000000000	
       12.7100000000	        0.0000000000	        0.0000000000	        0.0000000000	       30.8877240522	      -10.9456499315	      -25.5354349809	        0.0000000000	       30.8877240522	      -10.9456499315	      -25.5354349809	        0.0000000000	        0.0000000000	
       12.7200000000	        0.0000000000	        0.0000000000	        0.0000000000	       46.5876682552	      -29.5229370284	       23.6143054440	        0.0000000000	       46.5876682552	      -29.5229370284	       23.6143054440	        0.0000000000	        0.0000000000	
       12.7300000000	        0.0000000000	        0.0000000000	        0.0000000000	      -21.8255852665	      -62.9948309111	        8.2864306686	        0.0000000000	      -21.8255852665	      -62.9948309111	        8.2864306686	        0.0000000000	        0.0000000000	
       12.7400000000	        0.0000000000	        0.0000000000	        0.0000000000	      -13.1807350056	      -17.2048866708	       -1.4149770427	        0.0000000000	      -13.1807350056	      -17.2048866708	       -1.4149770427	        0.0000000000	        0.0000000000	
       12.7500000000	        0.0000000000	        0.0000000000	        0.0000000000	      -43.0085635216	      -68.8299038707	      -23.8137881235	        0.0000000000	      -43.0085635216	      -68.8299038707	      -23.8137881235	        0.0000000000	        0.0000000000	
       12.7600000000	        0.0000000000	        0.0000000000	        0.0000000000	       -8.3579003542	      -53.5176729638	      -11.9630855287	        0.0000000000	       -8.3579003542	      -53.5176729638	      -11.9630855287	        0.0000000000	        0.0000000000	
       12.7700000000	        0.0000000000	        0.0000000000	        0.0000000000	       40.9467448004	      -64.7308986916	      -29.4913305935	        0.0000000000	       40.9467448004	      -64.7308986916	      -29.4913305935	        0.0000000000	        0.0000000000	
       12.7800000000	        0.0000000000	        0.0000000000	        0.0000000000	       28.6108569274	      -46.5465117133	      -19.6378107919	        0.0000000000	       28.6108569274	      -46.5465117133	      -19.6378107919	        0.0000000000	        0.0000000000	
       12.7900000000	        0.0000000000	        0.0000000000	        0.0000000000	       41.3723598736	      -76.3737547801	       21.7296432685	        0.0000000000	       41.3723598736	      -76.3737547801	       21.7296432685	        0.0000000000	        0.0000000000	
       12.8000000000	        0.0000000000	        0.0000000000	        0.0000000000	      -47.0782043329	      -27.4122945608	        6.3827381819	        0.0000000000	      -47.0782043329	      -27.4122945608	        6.3827381819	        0.0000000000	        0.0000000000	
       12.8100000000	        0.0000000000	        0.0000000000	        0.0000000000	      -46.4339727483	      -61.2488337446	      -28.4786456472	        0.0000000000	      -46.4339727483	      -61.2488337446	      -28.4786456472	        0.0000000000	        0.0000000000	
       12.8200000000	        0.0000000000	        0.0000000000	        0.0000000000	        8.9710128232	      -84.9041075650	       24.3483877382	        0.0000000000	        8.9710128232	      -84.9041075650	       24.3483877382	        0.0000000000	        0.0000000000	
       12.8300000000	        0.0000000000	        0.0000000000	        0.0000000000	       48.3538451786	      -27.8559024162	       27.3366824277	        0.0000000000	       48.3538451786	      -27.8559024162	       27.3366824277	        0.0000000000	        0.0000000000	
       12.8400000000	        0.0000000000	        0.0000000000	        0.0000000000	       33.8951551273	      -59.2163906004	        7.8807630467	        0.0000000000	       33.8951551273	      -59.2163906004	        7.8807630467	        0.0000000000	        0.0000000000	
       12.8500000000	        0.0000000000	        0.0000000000	        0.0000000000	       13.1091944288	      -59.1968686127	       -6.0125139847	        0.0000000000	       13.1091944288	      -59.1968686127	       -6.0125139847	        0.0000000000	        0.0000000000	
       12.8600000000	        0.0000000000	        0.0000000000	        0.0000000000	       -6.0238730609	      -28.3894430806	      -24.7259075152	        0.0000000000	       -6.0238730609	      -28.3894430806	      -24.7259075152	        0.0000000000	        0.0000000000	
       12.8700000000	        0.0000000000	        0.0000000000	        0.0000000000	      -43.5207618716	      -54.6199522942	      -10.4371336490	        0.0000000000	      -43.5207618716	      -54.6199522942	      -10.4371336490	        0.0000000000	        0.0000000000	
       12.8800000000	        0.0000000000	        0.0000000000	        0.0000000000	      -13.1635563383	      -59.0065803044	      -21.0745443866	        0.0000000000	      -13.1635563383	      -59.0065803044	      -21.0745443866	        0.0000000000	        0.0000000000	
       12.8900000000	        0.0000000000	        0.0000000000	        0.0000000000	        5.9144915924	      -32.1847030117	       28.1664960639	        0.0000000000	        5.9144915924	      -32.1847030117	       28.1664960639	        0.0000000000	        0.0000000000	
       12.9000000000	        0.0000000000	        0.0000000000	        0.0000000000	        3.6661445514	      -86.1405532845	       26.3124693162	        0.0000000000	        3.6661445514	      -86.1405532845	       26.3124693162	        0.0000000000	        0.0000000000	
